<svg xmlns="http://www.w3.org/2000/svg" width="64" height="64" viewBox="0 0 64 64">
  <defs>
    <linearGradient id="bgF" x1="0" y1="0" x2="1" y2="1">
      <stop offset="0%" stop-color="#4F46E5"/>
      <stop offset="100%" stop-color="#6366F1"/>
    </linearGradient>
  </defs>
  <rect width="64" height="64" rx="14" fill="url(#bgF)"/>
  <!-- Graduation cap -->
  <g transform="translate(32,20)">
    <polygon points="-14,-5 0,-11 14,-5 0,1" fill="rgba(255,255,255,0.95)"/>
    <rect x="-6" y="-4" width="12" height="9" rx="2" fill="rgba(255,255,255,0.75)"/>
    <line x1="14" y1="-5" x2="14" y2="5" stroke="#FCD34D" stroke-width="1.5" stroke-linecap="round"/>
    <circle cx="14" cy="6" r="2" fill="#FCD34D"/>
  </g>
  <!-- Book -->
  <g transform="translate(32,40)">
    <rect x="-2" y="-1" width="4" height="14" rx="1.5" fill="rgba(255,255,255,0.5)"/>
    <path d="M-2 0 Q-14 1.5 -18 3.5 L-18 13 Q-11 11.5 -2 12.5 Z" fill="rgba(255,255,255,0.85)"/>
    <path d="M2 0 Q14 1.5 18 3.5 L18 13 Q11 11.5 2 12.5 Z" fill="rgba(255,255,255,0.85)"/>
    <path d="M-18 13 Q-9 16 0 15 Q9 16 18 13" fill="none" stroke="rgba(255,255,255,0.5)" stroke-width="1.5" stroke-linecap="round"/>
  </g>
  <!-- Mini leaves -->
  <g transform="translate(14,40)" opacity="0.9">
    <ellipse cx="0" cy="0" rx="4" ry="7" fill="#4ADE80" transform="rotate(-45)"/>
    <ellipse cx="-6" cy="-5" rx="3.5" ry="6" fill="#22C55E" transform="rotate(-65)"/>
  </g>
  <g transform="translate(50,40)" opacity="0.9">
    <ellipse cx="0" cy="0" rx="4" ry="7" fill="#4ADE80" transform="rotate(45)"/>
    <ellipse cx="6" cy="-5" rx="3.5" ry="6" fill="#22C55E" transform="rotate(65)"/>
  </g>
  <!-- Stars -->
  <g fill="#FCD34D">
    <path d="M24,33 l1.5,3 l3.5,0 l-2.5,2 l1,3 l-3.5,-2.5 l-3.5,2.5 l1,-3 l-2.5,-2 l3.5,0 Z" transform="scale(0.7) translate(10,8)"/>
    <path d="M32,31 l2,4 l4,0 l-3,2.5 l1.2,4 l-4.2,-2.8 l-4.2,2.8 l1.2,-4 l-3,-2.5 l4,0 Z" transform="scale(0.65)"/>
    <path d="M40,33 l1.5,3 l3.5,0 l-2.5,2 l1,3 l-3.5,-2.5 l-3.5,2.5 l1,-3 l-2.5,-2 l3.5,0 Z" transform="scale(0.7) translate(-10,8)"/>
  </g>
</svg>
